solid
  facet normal -9.9756405E-01 -6.9756473E-02 -1.8521080E-14
    outer loop      
      vertex   -2.2712824E+01 +1.9684839E+02 +1.9712736E+01
      vertex   -2.9020698E+01 +2.8705518E+02 -4.6667815E+01
      vertex   -2.5137549E+01 +2.3152357E+02 -4.6667815E+01
    endloop
  endfacet
  facet normal -9.9756405E-01 -6.9756473E-02 -1.0781532E-14
    outer loop      
      vertex   -2.2712824E+01 +1.9684839E+02 +1.9712736E+01
      vertex   -2.5137549E+01 +2.3152357E+02 -4.6667815E+01
      vertex   -2.1353050E+01 +1.7740272E+02 -6.8418595E+00
    endloop
  endfacet
  facet normal -9.9756405E-01 -6.9756473E-02 +9.0826272E-16
    outer loop      
      vertex   -1.3482177E+01 +2.7987779E+02 -6.8911761E+01
      vertex   -1.3063952E+01 +2.7389690E+02 -7.7079136E+01
      vertex   -1.2287840E+01 +2.6279797E+02 -6.8911761E+01
    endloop
  endfacet
  facet normal -9.3740357E-01 -6.5549643E-02 -3.4202014E-01
    outer loop      
      vertex   -1.2287840E+01 +2.6279797E+02 -6.8911761E+01
      vertex   -1.3321665E+01 +2.5745902E+02 -6.5055036E+01
      vertex   -1.3482177E+01 +2.7987779E+02 -6.8911761E+01
    endloop
  endfacet
  facet normal -9.3740357E-01 -6.5549643E-02 -3.4202014E-01
    outer loop      
      vertex   -1.3321665E+01 +2.5745902E+02 -6.5055036E+01
      vertex   -1.5079981E+01 +2.8260411E+02 -6.5055036E+01
      vertex   -1.3482177E+01 +2.7987779E+02 -6.8911761E+01
    endloop
  endfacet
  facet normal -9.3740357E-01 -6.5549643E-02 -3.4202014E-01
    outer loop      
      vertex   -2.4103724E+01 +2.3686252E+02 -5.0524540E+01
      vertex   -2.9020698E+01 +2.8705518E+02 -4.6667815E+01
      vertex   -2.7986873E+01 +2.9239414E+02 -5.0524540E+01
    endloop
  endfacet
  facet normal -9.3740357E-01 -6.5549643E-02 -3.4202014E-01
    outer loop      
      vertex   -2.4103724E+01 +2.3686252E+02 -5.0524540E+01
      vertex   -2.5137549E+01 +2.3152357E+02 -4.6667815E+01
      vertex   -2.9020698E+01 +2.8705518E+02 -4.6667815E+01
    endloop
  endfacet
  facet normal -7.6417839E-01 -5.3436559E-02 -6.4278760E-01
    outer loop      
      vertex   -2.7986873E+01 +2.9239414E+02 -5.0524540E+01
      vertex   -1.5079981E+01 +2.8260411E+02 -6.5055036E+01
      vertex   -1.3321665E+01 +2.5745902E+02 -6.5055036E+01
    endloop
  endfacet
  facet normal -7.6417839E-01 -5.3436559E-02 -6.4278760E-01
    outer loop      
      vertex   -2.7986873E+01 +2.9239414E+02 -5.0524540E+01
      vertex   -1.3321665E+01 +2.5745902E+02 -6.5055036E+01
      vertex   -2.4103724E+01 +2.3686252E+02 -5.0524540E+01
    endloop
  endfacet
endsolid
