solid ASM0007
  facet normal 0.000000e+00 1.000000e+00 0.000000e+00
    outer loop
      vertex 0.000000e+00 5.000000e+00 5.305953e+01
      vertex 8.623141e+02 5.000000e+00 3.330595e+02
      vertex 8.623141e+02 5.000000e+00 5.305953e+01
    endloop
  endfacet
  facet normal 1.000000e+00 0.000000e+00 0.000000e+00
    outer loop
      vertex 8.623141e+02 0.000000e+00 5.305953e+01
      vertex 8.623141e+02 5.000000e+00 5.305953e+01
      vertex 8.623141e+02 5.000000e+00 3.330595e+02
    endloop
  endfacet
  facet normal 0.000000e+00 0.000000e+00 -1.000000e+00
    outer loop
      vertex 0.000000e+00 0.000000e+00 5.305953e+01
      vertex 0.000000e+00 5.000000e+00 5.305953e+01
      vertex 8.623141e+02 5.000000e+00 5.305953e+01
    endloop
  endfacet
  facet normal 0.000000e+00 0.000000e+00 -1.000000e+00
    outer loop
      vertex 0.000000e+00 0.000000e+00 5.305953e+01
      vertex 8.623141e+02 5.000000e+00 5.305953e+01
      vertex 8.623141e+02 0.000000e+00 5.305953e+01
    endloop
  endfacet
  facet normal 0.000000e+00 1.000000e+00 0.000000e+00
    outer loop
      vertex 0.000000e+00 5.000000e+00 5.305953e+01
      vertex 0.000000e+00 5.000000e+00 3.330595e+02
      vertex 8.623141e+02 5.000000e+00 3.330595e+02
    endloop
  endfacet
  facet normal 0.000000e+00 0.000000e+00 1.000000e+00
    outer loop
      vertex 8.623141e+02 0.000000e+00 3.330595e+02
      vertex 8.623141e+02 5.000000e+00 3.330595e+02
      vertex 0.000000e+00 5.000000e+00 3.330595e+02
    endloop
  endfacet
  facet normal 1.000000e+00 0.000000e+00 0.000000e+00
    outer loop
      vertex 8.623141e+02 0.000000e+00 3.330595e+02
      vertex 8.623141e+02 0.000000e+00 5.305953e+01
      vertex 8.623141e+02 5.000000e+00 3.330595e+02
    endloop
  endfacet
  facet normal -1.000000e+00 0.000000e+00 0.000000e+00
    outer loop
      vertex 0.000000e+00 0.000000e+00 3.330595e+02
      vertex 0.000000e+00 5.000000e+00 3.330595e+02
      vertex 0.000000e+00 5.000000e+00 5.305953e+01
    endloop
  endfacet
  facet normal 0.000000e+00 0.000000e+00 1.000000e+00
    outer loop
      vertex 8.623141e+02 0.000000e+00 3.330595e+02
      vertex 0.000000e+00 5.000000e+00 3.330595e+02
      vertex 0.000000e+00 0.000000e+00 3.330595e+02
    endloop
  endfacet
  facet normal -1.000000e+00 0.000000e+00 0.000000e+00
    outer loop
      vertex 0.000000e+00 0.000000e+00 3.330595e+02
      vertex 0.000000e+00 5.000000e+00 5.305953e+01
      vertex 0.000000e+00 0.000000e+00 5.305953e+01
    endloop
  endfacet
  facet normal 0.000000e+00 -1.000000e+00 0.000000e+00
    outer loop
      vertex 0.000000e+00 0.000000e+00 3.330595e+02
      vertex 0.000000e+00 0.000000e+00 5.305953e+01
      vertex 8.623141e+02 0.000000e+00 5.305953e+01
    endloop
  endfacet
  facet normal 0.000000e+00 -1.000000e+00 0.000000e+00
    outer loop
      vertex 8.623141e+02 0.000000e+00 3.330595e+02
      vertex 0.000000e+00 0.000000e+00 3.330595e+02
      vertex 8.623141e+02 0.000000e+00 5.305953e+01
    endloop
  endfacet
endsolid ASM0007
