solid
  facet normal +1.0000000E+00 -1.0214051E-14 -1.8503717E-17
    outer loop      
      vertex   -2.0353982E+00 +1.4000000E+01 +2.8000000E+01
      vertex   -2.0353982E+00 +1.5000000E+01 +2.8000000E+01
      vertex   -2.0353982E+00 +1.5000000E+01 +5.2000000E+01
    endloop
  endfacet
  facet normal +1.0000000E-00 -1.0658141E-14 +0.0000000E+00
    outer loop      
      vertex   -2.0353982E+00 +1.4000000E+01 +2.8000000E+01
      vertex   -2.0353982E+00 +1.5000000E+01 +5.2000000E+01
      vertex   -2.0353982E+00 +1.4000000E+01 +5.2000000E+01
    endloop
  endfacet
  facet normal +1.0000000E+00 +0.0000000E+00 +0.0000000E+00
    outer loop      
      vertex   -2.0353982E+00 +4.0000000E+00 +2.8000000E+01
      vertex   -2.0353982E+00 +1.4000000E+01 +2.8000000E+01
      vertex   -2.0353982E+00 +1.4000000E+01 +5.2000000E+01
    endloop
  endfacet
  facet normal +1.0000000E+00 +0.0000000E+00 +0.0000000E+00
    outer loop      
      vertex   -2.0353982E+00 +4.0000000E+00 +2.8000000E+01
      vertex   -2.0353982E+00 +1.4000000E+01 +5.2000000E+01
      vertex   -2.0353982E+00 +4.0000000E+00 +5.2000000E+01
    endloop
  endfacet
  facet normal -9.9998382E-01 +5.6873622E-03 -4.7415338E-16
    outer loop      
      vertex   -2.0556875E+00 +2.7518782E+02 +5.2000000E+01
      vertex   -2.0283186E+00 +2.7999998E+02 +2.8000000E+01
      vertex   -2.0556875E+00 +2.7518782E+02 +2.8000000E+01
    endloop
  endfacet
  facet normal -9.9998382E-01 +5.6873622E-03 +0.0000000E+00
    outer loop      
      vertex   -2.0556875E+00 +2.7518782E+02 +5.2000000E+01
      vertex   -2.0283186E+00 +2.7999998E+02 +5.2000000E+01
      vertex   -2.0283186E+00 +2.7999998E+02 +2.8000000E+01
    endloop
  endfacet
  facet normal -9.9999899E-01 +1.4159281E-03 +0.0000000E+00
    outer loop      
      vertex   -2.0070797E+00 +2.9499995E+02 +5.2000000E+01
      vertex   -2.0070797E+00 +2.9499995E+02 +2.8000000E+01
      vertex   -2.0283186E+00 +2.7999998E+02 +2.8000000E+01
    endloop
  endfacet
  facet normal -9.9999899E-01 +1.4159281E-03 +0.0000000E+00
    outer loop      
      vertex   -2.0283186E+00 +2.7999998E+02 +5.2000000E+01
      vertex   -2.0070797E+00 +2.9499995E+02 +5.2000000E+01
      vertex   -2.0283186E+00 +2.7999998E+02 +2.8000000E+01
    endloop
  endfacet
  facet normal -9.9999899E-01 +1.4159281E-03 +0.0000000E+00
    outer loop      
      vertex   -2.0070797E+00 +2.9499995E+02 +5.2000000E+01
      vertex   -2.0000000E+00 +2.9999997E+02 +2.8000000E+01
      vertex   -2.0070797E+00 +2.9499995E+02 +2.8000000E+01
    endloop
  endfacet
  facet normal -9.9999899E-01 +1.4159281E-03 +0.0000000E+00
    outer loop      
      vertex   -2.0070797E+00 +2.9499995E+02 +5.2000000E+01
      vertex   -2.0000000E+00 +2.9999997E+02 +5.2000000E+01
      vertex   -2.0000000E+00 +2.9999997E+02 +2.8000000E+01
    endloop
  endfacet
  facet normal -9.9715067E-01 +7.5435652E-02 -3.5543379E-16
    outer loop      
      vertex   -2.0766348E+00 +2.7491093E+02 +5.2000000E+01
      vertex   -2.0556875E+00 +2.7518782E+02 +5.2000000E+01
      vertex   -2.0766348E+00 +2.7491093E+02 +2.8000000E+01
    endloop
  endfacet
  facet normal -9.9715067E-01 +7.5435652E-02 +5.1847528E-16
    outer loop      
      vertex   -2.0556875E+00 +2.7518782E+02 +5.2000000E+01
      vertex   -2.0556875E+00 +2.7518782E+02 +2.8000000E+01
      vertex   -2.0766348E+00 +2.7491093E+02 +2.8000000E+01
    endloop
  endfacet
  facet normal +9.8262990E-01 -1.8557603E-01 -5.4181767E-16
    outer loop      
      vertex   -2.0766348E+00 +2.7491093E+02 +5.2000000E+01
      vertex   -4.1015107E+01 +6.8730715E+01 +2.8000000E+01
      vertex   -2.0766348E+00 +2.7491093E+02 +2.8000000E+01
    endloop
  endfacet
  facet normal +9.8262990E-01 -1.8557603E-01 +0.0000000E+00
    outer loop      
      vertex   -2.0766348E+00 +2.7491093E+02 +5.2000000E+01
      vertex   -4.1015107E+01 +6.8730715E+01 +5.2000000E+01
      vertex   -4.1015107E+01 +6.8730715E+01 +2.8000000E+01
    endloop
  endfacet
  facet normal +9.8260869E-01 -1.8568833E-01 +2.3593581E-16
    outer loop      
      vertex   -4.4728874E+01 +4.9078541E+01 +5.2000000E+01
      vertex   -4.4728874E+01 +4.9078541E+01 +2.8000000E+01
      vertex   -4.1015107E+01 +6.8730715E+01 +2.8000000E+01
    endloop
  endfacet
  facet normal +9.8260869E-01 -1.8568833E-01 +0.0000000E+00
    outer loop      
      vertex   -4.1015107E+01 +6.8730715E+01 +5.2000000E+01
      vertex   -4.4728874E+01 +4.9078541E+01 +5.2000000E+01
      vertex   -4.1015107E+01 +6.8730715E+01 +2.8000000E+01
    endloop
  endfacet
  facet normal +9.8260869E-01 -1.8568833E-01 +6.9177080E-16
    outer loop      
      vertex   -4.5715694E+01 +4.3856577E+01 +5.2000000E+01
      vertex   -4.5715694E+01 +4.3856577E+01 +2.8000000E+01
      vertex   -4.4728874E+01 +4.9078541E+01 +2.8000000E+01
    endloop
  endfacet
  facet normal +9.8260869E-01 -1.8568833E-01 +2.3676344E-16
    outer loop      
      vertex   -4.4728874E+01 +4.9078541E+01 +5.2000000E+01
      vertex   -4.5715694E+01 +4.3856577E+01 +5.2000000E+01
      vertex   -4.4728874E+01 +4.9078541E+01 +2.8000000E+01
    endloop
  endfacet
  facet normal +9.8658023E-01 +1.6327716E-01 -4.8488454E-16
    outer loop      
      vertex   -4.5567700E+01 +3.5131756E+01 +2.8000000E+01
      vertex   -4.6284246E+01 +3.9461387E+01 +2.8000000E+01
      vertex   -4.5567700E+01 +3.5131756E+01 +5.2000000E+01
    endloop
  endfacet
  facet normal +9.8658023E-01 +1.6327716E-01 +4.6291825E-17
    outer loop      
      vertex   -4.6284246E+01 +3.9461387E+01 +2.8000000E+01
      vertex   -4.6284246E+01 +3.9461387E+01 +5.2000000E+01
      vertex   -4.5567700E+01 +3.5131756E+01 +5.2000000E+01
    endloop
  endfacet
  facet normal +9.9173683E-01 -1.2828889E-01 -5.5947741E-16
    outer loop      
      vertex   -4.6284246E+01 +3.9461387E+01 +2.8000000E+01
      vertex   -4.5715694E+01 +4.3856577E+01 +2.8000000E+01
      vertex   -4.6284246E+01 +3.9461387E+01 +5.2000000E+01
    endloop
  endfacet
  facet normal +9.9173683E-01 -1.2828889E-01 +6.6318845E-16
    outer loop      
      vertex   -4.5715694E+01 +4.3856577E+01 +2.8000000E+01
      vertex   -4.5715694E+01 +4.3856577E+01 +5.2000000E+01
      vertex   -4.6284246E+01 +3.9461387E+01 +5.2000000E+01
    endloop
  endfacet
  facet normal +6.2019726E-01 +7.8444588E-01 +3.0061472E-16
    outer loop      
      vertex   -3.9580210E+01 +2.8783971E+01 +2.8000000E+01
      vertex   -4.3056726E+01 +3.1532568E+01 +2.8000000E+01
      vertex   -3.9580210E+01 +2.8783971E+01 +5.2000000E+01
    endloop
  endfacet
  facet normal +6.2019726E-01 +7.8444588E-01 +5.3197923E-16
    outer loop      
      vertex   -4.3056726E+01 +3.1532568E+01 +2.8000000E+01
      vertex   -4.3056726E+01 +3.1532568E+01 +5.2000000E+01
      vertex   -3.9580210E+01 +2.8783971E+01 +5.2000000E+01
    endloop
  endfacet
  facet normal +8.2013622E-01 +5.7216830E-01 +4.8910092E-16
    outer loop      
      vertex   -4.3056726E+01 +3.1532568E+01 +2.8000000E+01
      vertex   -4.5567700E+01 +3.5131756E+01 +2.8000000E+01
      vertex   -4.3056726E+01 +3.1532568E+01 +5.2000000E+01
    endloop
  endfacet
  facet normal +8.2013622E-01 +5.7216830E-01 -1.4682649E-16
    outer loop      
      vertex   -4.5567700E+01 +3.5131756E+01 +2.8000000E+01
      vertex   -4.5567700E+01 +3.5131756E+01 +5.2000000E+01
      vertex   -4.3056726E+01 +3.1532568E+01 +5.2000000E+01
    endloop
  endfacet
  facet normal +5.7357643E-01 +8.1915204E-01 +2.9152289E-16
    outer loop      
      vertex   -3.9580210E+01 +2.8783971E+01 +5.2000000E+01
      vertex   -3.9322678E+01 +2.8603646E+01 +2.8000000E+01
      vertex   -3.9580210E+01 +2.8783971E+01 +2.8000000E+01
    endloop
  endfacet
  facet normal +5.7357643E-01 +8.1915204E-01 +1.6981273E-16
    outer loop      
      vertex   -3.9580210E+01 +2.8783971E+01 +5.2000000E+01
      vertex   -3.9322678E+01 +2.8603646E+01 +5.2000000E+01
      vertex   -3.9322678E+01 +2.8603646E+01 +2.8000000E+01
    endloop
  endfacet
  facet normal +5.7357643E-01 +8.1915204E-01 -7.2704985E-17
    outer loop      
      vertex   -3.1131158E+01 +2.2867882E+01 +5.2000000E+01
      vertex   -3.1131158E+01 +2.2867882E+01 +2.8000000E+01
      vertex   -3.9322678E+01 +2.8603646E+01 +2.8000000E+01
    endloop
  endfacet
  facet normal +5.7357643E-01 +8.1915204E-01 +1.7763568E-16
    outer loop      
      vertex   -3.9322678E+01 +2.8603646E+01 +5.2000000E+01
      vertex   -3.1131158E+01 +2.2867882E+01 +5.2000000E+01
      vertex   -3.9322678E+01 +2.8603646E+01 +2.8000000E+01
    endloop
  endfacet
  facet normal +5.7357643E-01 +8.1915204E-01 -1.6956107E-16
    outer loop      
      vertex   -3.0909562E+01 +2.2712719E+01 +5.2000000E+01
      vertex   -3.0909562E+01 +2.2712719E+01 +2.8000000E+01
      vertex   -3.1131158E+01 +2.2867882E+01 +2.8000000E+01
    endloop
  endfacet
  facet normal +5.7357643E-01 +8.1915204E-01 -7.2676077E-17
    outer loop      
      vertex   -3.1131158E+01 +2.2867882E+01 +5.2000000E+01
      vertex   -3.0909562E+01 +2.2712719E+01 +5.2000000E+01
      vertex   -3.1131158E+01 +2.2867882E+01 +2.8000000E+01
    endloop
  endfacet
  facet normal +4.7274417E-01 +8.8119972E-01 -3.5326477E-16
    outer loop      
      vertex   -3.0909562E+01 +2.2712719E+01 +2.8000000E+01
      vertex   -3.0909562E+01 +2.2712719E+01 +5.2000000E+01
      vertex   -2.6864334E+01 +2.0542543E+01 +5.2000000E+01
    endloop
  endfacet
  facet normal +4.7274417E-01 +8.8119972E-01 -1.4510848E-16
    outer loop      
      vertex   -2.6864334E+01 +2.0542543E+01 +2.8000000E+01
      vertex   -3.0909562E+01 +2.2712719E+01 +2.8000000E+01
      vertex   -2.6864334E+01 +2.0542543E+01 +5.2000000E+01
    endloop
  endfacet
  facet normal +1.1818604E-01 +9.9299146E-01 -3.4990097E-17
    outer loop      
      vertex   -2.6864334E+01 +2.0542543E+01 +2.8000000E+01
      vertex   -2.6864334E+01 +2.0542543E+01 +5.2000000E+01
      vertex   -2.2305916E+01 +2.0000000E+01 +5.2000000E+01
    endloop
  endfacet
  facet normal +1.1818604E-01 +9.9299146E-01 +6.4492660E-17
    outer loop      
      vertex   -2.2305916E+01 +2.0000000E+01 +2.8000000E+01
      vertex   -2.6864334E+01 +2.0542543E+01 +2.8000000E+01
      vertex   -2.2305916E+01 +2.0000000E+01 +5.2000000E+01
    endloop
  endfacet
  facet normal +9.4481984E-28 +1.0000000E+00 -1.4802973E-16
    outer loop      
      vertex   -2.2035398E+01 +2.0000000E+01 +5.2000000E+01
      vertex   -2.2305916E+01 +2.0000000E+01 +2.8000000E+01
      vertex   -2.2305916E+01 +2.0000000E+01 +5.2000000E+01
    endloop
  endfacet
  facet normal -1.3132994E-14 +1.0000000E+00 -1.9440737E-30
    outer loop      
      vertex   -2.2035398E+01 +2.0000000E+01 +5.2000000E+01
      vertex   -2.2035398E+01 +2.0000000E+01 +2.8000000E+01
      vertex   -2.2305916E+01 +2.0000000E+01 +2.8000000E+01
    endloop
  endfacet
  facet normal -4.7369515E-16 +1.0000000E+00 +0.0000000E+00
    outer loop      
      vertex   -7.0353982E+00 +2.0000000E+01 +5.2000000E+01
      vertex   -2.2035398E+01 +2.0000000E+01 +2.8000000E+01
      vertex   -2.2035398E+01 +2.0000000E+01 +5.2000000E+01
    endloop
  endfacet
  facet normal -4.7369515E-16 +1.0000000E+00 +0.0000000E+00
    outer loop      
      vertex   -7.0353982E+00 +2.0000000E+01 +5.2000000E+01
      vertex   -7.0353982E+00 +2.0000000E+01 +2.8000000E+01
      vertex   -2.2035398E+01 +2.0000000E+01 +2.8000000E+01
    endloop
  endfacet
  facet normal +2.4253562E-01 +9.7014250E-01 +1.2565869E-16
    outer loop      
      vertex   -7.0353982E+00 +2.0000000E+01 +2.8000000E+01
      vertex   -7.0353982E+00 +2.0000000E+01 +5.2000000E+01
      vertex   -3.0353982E+00 +1.9000000E+01 +5.2000000E+01
    endloop
  endfacet
  facet normal +2.4253562E-01 +9.7014250E-01 +2.0255957E-12
    outer loop      
      vertex   -3.0353982E+00 +1.9000000E+01 +2.8000000E+01
      vertex   -7.0353982E+00 +2.0000000E+01 +2.8000000E+01
      vertex   -3.0353982E+00 +1.9000000E+01 +5.2000000E+01
    endloop
  endfacet
  facet normal +9.7014250E-01 +2.4253562E-01 +1.5365365E-12
    outer loop      
      vertex   -3.0353982E+00 +1.9000000E+01 +2.8000000E+01
      vertex   -3.0353982E+00 +1.9000000E+01 +5.2000000E+01
      vertex   -2.0353982E+00 +1.5000000E+01 +5.2000000E+01
    endloop
  endfacet
  facet normal +9.7014250E-01 +2.4253562E-01 -1.4360993E-16
    outer loop      
      vertex   -2.0353982E+00 +1.5000000E+01 +2.8000000E+01
      vertex   -3.0353982E+00 +1.9000000E+01 +2.8000000E+01
      vertex   -2.0353982E+00 +1.5000000E+01 +5.2000000E+01
    endloop
  endfacet
  facet normal +1.0000000E+00 +0.0000000E+00 +0.0000000E+00
    outer loop      
      vertex   -2.0353982E+00 +0.0000000E+00 +2.8000000E+01
      vertex   -2.0353982E+00 +4.0000000E+00 +2.8000000E+01
      vertex   -2.0353982E+00 +4.0000000E+00 +5.2000000E+01
    endloop
  endfacet
  facet normal +1.0000000E+00 +0.0000000E+00 +0.0000000E+00
    outer loop      
      vertex   -2.0353982E+00 +0.0000000E+00 +2.8000000E+01
      vertex   -2.0353982E+00 +4.0000000E+00 +5.2000000E+01
      vertex   -2.0353982E+00 +0.0000000E+00 +5.2000000E+01
    endloop
  endfacet
endsolid
